<svg id="visual" viewBox="0 0 900 600" width="900" height="600" xmlns="http://www.w3.org/2000/svg" xmlns:xlink="http://www.w3.org/1999/xlink" version="1.1"><rect x="0" y="0" width="900" height="600" fill="#002233"></rect><path d="M0 446L21.5 440.5C43 435 86 424 128.8 434.8C171.7 445.7 214.3 478.3 257.2 472.7C300 467 343 423 385.8 404.3C428.7 385.7 471.3 392.3 514.2 402.5C557 412.7 600 426.3 642.8 435.7C685.7 445 728.3 450 771.2 450.8C814 451.7 857 448.3 878.5 446.7L900 445L900 601L878.5 601C857 601 814 601 771.2 601C728.3 601 685.7 601 642.8 601C600 601 557 601 514.2 601C471.3 601 428.7 601 385.8 601C343 601 300 601 257.2 601C214.3 601 171.7 601 128.8 601C86 601 43 601 21.5 601L0 601Z" fill="#0066FF" stroke-linecap="round" stroke-linejoin="miter"></path></svg>